<mxfile host="app.diagrams.net" modified="2023-03-23T08:38:41.424Z" agent="5.0 (Windows)" etag="VeOfG8Sunm9JJfcawHzx" version="20.4.2" type="github">
  <diagram id="C5RBs43oDa-KdzZeNtuy" name="Page-1">
    <mxGraphModel dx="868" dy="479" grid="1" gridSize="10" guides="1" tooltips="1" connect="1" arrows="1" fold="1" page="1" pageScale="1" pageWidth="827" pageHeight="1169" math="0" shadow="0">
      <root>
        <mxCell id="WIyWlLk6GJQsqaUBKTNV-0" />
        <mxCell id="WIyWlLk6GJQsqaUBKTNV-1" parent="WIyWlLk6GJQsqaUBKTNV-0" />
        <mxCell id="xQWbSTvO4JMvCj60NgMt-9" value="" style="edgeStyle=orthogonalEdgeStyle;rounded=0;orthogonalLoop=1;jettySize=auto;html=1;startArrow=classic;startFill=1;" edge="1" parent="WIyWlLk6GJQsqaUBKTNV-1" source="xQWbSTvO4JMvCj60NgMt-0" target="xQWbSTvO4JMvCj60NgMt-5">
          <mxGeometry relative="1" as="geometry" />
        </mxCell>
        <mxCell id="xQWbSTvO4JMvCj60NgMt-0" value="Ciclo" style="swimlane;fontStyle=0;childLayout=stackLayout;horizontal=1;startSize=26;fillColor=none;horizontalStack=0;resizeParent=1;resizeParentMax=0;resizeLast=0;collapsible=1;marginBottom=0;" vertex="1" parent="WIyWlLk6GJQsqaUBKTNV-1">
          <mxGeometry x="220" y="40" width="140" height="104" as="geometry" />
        </mxCell>
        <mxCell id="xQWbSTvO4JMvCj60NgMt-1" value="C贸digo: String" style="text;strokeColor=none;fillColor=none;align=left;verticalAlign=top;spacingLeft=4;spacingRight=4;overflow=hidden;rotatable=0;points=[[0,0.5],[1,0.5]];portConstraint=eastwest;" vertex="1" parent="xQWbSTvO4JMvCj60NgMt-0">
          <mxGeometry y="26" width="140" height="26" as="geometry" />
        </mxCell>
        <mxCell id="xQWbSTvO4JMvCj60NgMt-2" value="Nombre: String" style="text;strokeColor=none;fillColor=none;align=left;verticalAlign=top;spacingLeft=4;spacingRight=4;overflow=hidden;rotatable=0;points=[[0,0.5],[1,0.5]];portConstraint=eastwest;" vertex="1" parent="xQWbSTvO4JMvCj60NgMt-0">
          <mxGeometry y="52" width="140" height="26" as="geometry" />
        </mxCell>
        <mxCell id="xQWbSTvO4JMvCj60NgMt-3" value="Horas: int" style="text;strokeColor=none;fillColor=none;align=left;verticalAlign=top;spacingLeft=4;spacingRight=4;overflow=hidden;rotatable=0;points=[[0,0.5],[1,0.5]];portConstraint=eastwest;" vertex="1" parent="xQWbSTvO4JMvCj60NgMt-0">
          <mxGeometry y="78" width="140" height="26" as="geometry" />
        </mxCell>
        <mxCell id="xQWbSTvO4JMvCj60NgMt-14" value="" style="edgeStyle=orthogonalEdgeStyle;rounded=0;orthogonalLoop=1;jettySize=auto;html=1;startArrow=classic;startFill=1;" edge="1" parent="WIyWlLk6GJQsqaUBKTNV-1" source="xQWbSTvO4JMvCj60NgMt-5" target="xQWbSTvO4JMvCj60NgMt-10">
          <mxGeometry relative="1" as="geometry" />
        </mxCell>
        <mxCell id="xQWbSTvO4JMvCj60NgMt-19" value="" style="edgeStyle=orthogonalEdgeStyle;rounded=0;orthogonalLoop=1;jettySize=auto;html=1;startArrow=classic;startFill=1;exitX=-0.007;exitY=1.038;exitDx=0;exitDy=0;exitPerimeter=0;" edge="1" parent="WIyWlLk6GJQsqaUBKTNV-1" source="xQWbSTvO4JMvCj60NgMt-7" target="xQWbSTvO4JMvCj60NgMt-15">
          <mxGeometry relative="1" as="geometry">
            <Array as="points">
              <mxPoint x="439" y="120" />
              <mxPoint x="400" y="120" />
              <mxPoint x="400" y="462" />
            </Array>
          </mxGeometry>
        </mxCell>
        <mxCell id="xQWbSTvO4JMvCj60NgMt-5" value="M贸dulo" style="swimlane;fontStyle=0;childLayout=stackLayout;horizontal=1;startSize=26;fillColor=none;horizontalStack=0;resizeParent=1;resizeParentMax=0;resizeLast=0;collapsible=1;marginBottom=0;" vertex="1" parent="WIyWlLk6GJQsqaUBKTNV-1">
          <mxGeometry x="440" y="40" width="140" height="104" as="geometry" />
        </mxCell>
        <mxCell id="xQWbSTvO4JMvCj60NgMt-6" value="C贸digo: String" style="text;strokeColor=none;fillColor=none;align=left;verticalAlign=top;spacingLeft=4;spacingRight=4;overflow=hidden;rotatable=0;points=[[0,0.5],[1,0.5]];portConstraint=eastwest;" vertex="1" parent="xQWbSTvO4JMvCj60NgMt-5">
          <mxGeometry y="26" width="140" height="26" as="geometry" />
        </mxCell>
        <mxCell id="xQWbSTvO4JMvCj60NgMt-7" value="Nombre: String" style="text;strokeColor=none;fillColor=none;align=left;verticalAlign=top;spacingLeft=4;spacingRight=4;overflow=hidden;rotatable=0;points=[[0,0.5],[1,0.5]];portConstraint=eastwest;" vertex="1" parent="xQWbSTvO4JMvCj60NgMt-5">
          <mxGeometry y="52" width="140" height="26" as="geometry" />
        </mxCell>
        <mxCell id="xQWbSTvO4JMvCj60NgMt-8" value="+ field: type" style="text;strokeColor=none;fillColor=none;align=left;verticalAlign=top;spacingLeft=4;spacingRight=4;overflow=hidden;rotatable=0;points=[[0,0.5],[1,0.5]];portConstraint=eastwest;" vertex="1" parent="xQWbSTvO4JMvCj60NgMt-5">
          <mxGeometry y="78" width="140" height="26" as="geometry" />
        </mxCell>
        <mxCell id="xQWbSTvO4JMvCj60NgMt-10" value="Ra" style="swimlane;fontStyle=0;childLayout=stackLayout;horizontal=1;startSize=26;fillColor=none;horizontalStack=0;resizeParent=1;resizeParentMax=0;resizeLast=0;collapsible=1;marginBottom=0;" vertex="1" parent="WIyWlLk6GJQsqaUBKTNV-1">
          <mxGeometry x="660" y="40" width="140" height="104" as="geometry" />
        </mxCell>
        <mxCell id="xQWbSTvO4JMvCj60NgMt-11" value="C贸digo: String" style="text;strokeColor=none;fillColor=none;align=left;verticalAlign=top;spacingLeft=4;spacingRight=4;overflow=hidden;rotatable=0;points=[[0,0.5],[1,0.5]];portConstraint=eastwest;" vertex="1" parent="xQWbSTvO4JMvCj60NgMt-10">
          <mxGeometry y="26" width="140" height="26" as="geometry" />
        </mxCell>
        <mxCell id="xQWbSTvO4JMvCj60NgMt-12" value="Nombre: String" style="text;strokeColor=none;fillColor=none;align=left;verticalAlign=top;spacingLeft=4;spacingRight=4;overflow=hidden;rotatable=0;points=[[0,0.5],[1,0.5]];portConstraint=eastwest;" vertex="1" parent="xQWbSTvO4JMvCj60NgMt-10">
          <mxGeometry y="52" width="140" height="26" as="geometry" />
        </mxCell>
        <mxCell id="xQWbSTvO4JMvCj60NgMt-13" value="+ field: type" style="text;strokeColor=none;fillColor=none;align=left;verticalAlign=top;spacingLeft=4;spacingRight=4;overflow=hidden;rotatable=0;points=[[0,0.5],[1,0.5]];portConstraint=eastwest;" vertex="1" parent="xQWbSTvO4JMvCj60NgMt-10">
          <mxGeometry y="78" width="140" height="26" as="geometry" />
        </mxCell>
        <mxCell id="xQWbSTvO4JMvCj60NgMt-24" value="" style="edgeStyle=orthogonalEdgeStyle;rounded=0;orthogonalLoop=1;jettySize=auto;html=1;startArrow=classic;startFill=1;" edge="1" parent="WIyWlLk6GJQsqaUBKTNV-1" source="xQWbSTvO4JMvCj60NgMt-15" target="xQWbSTvO4JMvCj60NgMt-20">
          <mxGeometry relative="1" as="geometry" />
        </mxCell>
        <mxCell id="xQWbSTvO4JMvCj60NgMt-15" value="Profesor" style="swimlane;fontStyle=0;childLayout=stackLayout;horizontal=1;startSize=26;fillColor=none;horizontalStack=0;resizeParent=1;resizeParentMax=0;resizeLast=0;collapsible=1;marginBottom=0;" vertex="1" parent="WIyWlLk6GJQsqaUBKTNV-1">
          <mxGeometry x="250" y="410" width="140" height="104" as="geometry" />
        </mxCell>
        <mxCell id="xQWbSTvO4JMvCj60NgMt-16" value="Dni: String" style="text;strokeColor=none;fillColor=none;align=left;verticalAlign=top;spacingLeft=4;spacingRight=4;overflow=hidden;rotatable=0;points=[[0,0.5],[1,0.5]];portConstraint=eastwest;" vertex="1" parent="xQWbSTvO4JMvCj60NgMt-15">
          <mxGeometry y="26" width="140" height="26" as="geometry" />
        </mxCell>
        <mxCell id="xQWbSTvO4JMvCj60NgMt-17" value="Nombre: String" style="text;strokeColor=none;fillColor=none;align=left;verticalAlign=top;spacingLeft=4;spacingRight=4;overflow=hidden;rotatable=0;points=[[0,0.5],[1,0.5]];portConstraint=eastwest;" vertex="1" parent="xQWbSTvO4JMvCj60NgMt-15">
          <mxGeometry y="52" width="140" height="26" as="geometry" />
        </mxCell>
        <mxCell id="xQWbSTvO4JMvCj60NgMt-18" value="+ field: type" style="text;strokeColor=none;fillColor=none;align=left;verticalAlign=top;spacingLeft=4;spacingRight=4;overflow=hidden;rotatable=0;points=[[0,0.5],[1,0.5]];portConstraint=eastwest;" vertex="1" parent="xQWbSTvO4JMvCj60NgMt-15">
          <mxGeometry y="78" width="140" height="26" as="geometry" />
        </mxCell>
        <mxCell id="xQWbSTvO4JMvCj60NgMt-25" style="edgeStyle=orthogonalEdgeStyle;rounded=0;orthogonalLoop=1;jettySize=auto;html=1;exitX=0.5;exitY=1;exitDx=0;exitDy=0;entryX=0;entryY=0.5;entryDx=0;entryDy=0;startArrow=classic;startFill=1;" edge="1" parent="WIyWlLk6GJQsqaUBKTNV-1" source="xQWbSTvO4JMvCj60NgMt-20" target="xQWbSTvO4JMvCj60NgMt-8">
          <mxGeometry relative="1" as="geometry">
            <Array as="points">
              <mxPoint x="80" y="570" />
              <mxPoint x="477" y="570" />
            </Array>
          </mxGeometry>
        </mxCell>
        <mxCell id="xQWbSTvO4JMvCj60NgMt-20" value="Alumno" style="swimlane;fontStyle=0;childLayout=stackLayout;horizontal=1;startSize=26;fillColor=none;horizontalStack=0;resizeParent=1;resizeParentMax=0;resizeLast=0;collapsible=1;marginBottom=0;" vertex="1" parent="WIyWlLk6GJQsqaUBKTNV-1">
          <mxGeometry x="10" y="410" width="140" height="104" as="geometry" />
        </mxCell>
        <mxCell id="xQWbSTvO4JMvCj60NgMt-21" value="Dni: String" style="text;strokeColor=none;fillColor=none;align=left;verticalAlign=top;spacingLeft=4;spacingRight=4;overflow=hidden;rotatable=0;points=[[0,0.5],[1,0.5]];portConstraint=eastwest;" vertex="1" parent="xQWbSTvO4JMvCj60NgMt-20">
          <mxGeometry y="26" width="140" height="26" as="geometry" />
        </mxCell>
        <mxCell id="xQWbSTvO4JMvCj60NgMt-22" value="Nombre: String" style="text;strokeColor=none;fillColor=none;align=left;verticalAlign=top;spacingLeft=4;spacingRight=4;overflow=hidden;rotatable=0;points=[[0,0.5],[1,0.5]];portConstraint=eastwest;" vertex="1" parent="xQWbSTvO4JMvCj60NgMt-20">
          <mxGeometry y="52" width="140" height="26" as="geometry" />
        </mxCell>
        <mxCell id="xQWbSTvO4JMvCj60NgMt-23" value="+ field: type" style="text;strokeColor=none;fillColor=none;align=left;verticalAlign=top;spacingLeft=4;spacingRight=4;overflow=hidden;rotatable=0;points=[[0,0.5],[1,0.5]];portConstraint=eastwest;" vertex="1" parent="xQWbSTvO4JMvCj60NgMt-20">
          <mxGeometry y="78" width="140" height="26" as="geometry" />
        </mxCell>
        <mxCell id="xQWbSTvO4JMvCj60NgMt-40" value="{disjoint}" style="ellipse;html=1;fillColor=strokeColor;labelPosition=center;align=center;fontFamily=Helvetica;fontSize=11;fontColor=default;verticalAlign=top;verticalLabelPosition=bottom;" vertex="1" parent="WIyWlLk6GJQsqaUBKTNV-1">
          <mxGeometry x="128" y="373" width="4" height="4" as="geometry" />
        </mxCell>
        <mxCell id="xQWbSTvO4JMvCj60NgMt-41" value="" style="edgeStyle=elbowEdgeStyle;html=1;endSize=12;endArrow=block;endFill=0;elbow=horizontal;rounded=0;labelBackgroundColor=default;fontFamily=Helvetica;fontSize=11;fontColor=default;shape=connector;" edge="1" source="xQWbSTvO4JMvCj60NgMt-40" parent="WIyWlLk6GJQsqaUBKTNV-1" target="xQWbSTvO4JMvCj60NgMt-47">
          <mxGeometry x="1" relative="1" as="geometry">
            <mxPoint x="210" y="300" as="targetPoint" />
            <Array as="points">
              <mxPoint x="200" y="320" />
            </Array>
          </mxGeometry>
        </mxCell>
        <mxCell id="xQWbSTvO4JMvCj60NgMt-42" value="" style="edgeStyle=elbowEdgeStyle;html=1;elbow=vertical;verticalAlign=bottom;endArrow=none;rounded=0;labelBackgroundColor=default;fontFamily=Helvetica;fontSize=11;fontColor=default;startSize=14;shape=connector;entryX=0.25;entryY=0;entryDx=0;entryDy=0;" edge="1" source="xQWbSTvO4JMvCj60NgMt-40" parent="WIyWlLk6GJQsqaUBKTNV-1" target="xQWbSTvO4JMvCj60NgMt-15">
          <mxGeometry x="1" relative="1" as="geometry">
            <mxPoint x="200" y="400" as="targetPoint" />
            <Array as="points">
              <mxPoint x="170" y="375" />
            </Array>
          </mxGeometry>
        </mxCell>
        <mxCell id="xQWbSTvO4JMvCj60NgMt-43" value="" style="edgeStyle=elbowEdgeStyle;html=1;elbow=vertical;verticalAlign=bottom;endArrow=none;rounded=0;labelBackgroundColor=default;fontFamily=Helvetica;fontSize=11;fontColor=default;startSize=14;shape=connector;entryX=0.014;entryY=0.231;entryDx=0;entryDy=0;entryPerimeter=0;" edge="1" source="xQWbSTvO4JMvCj60NgMt-40" parent="WIyWlLk6GJQsqaUBKTNV-1" target="xQWbSTvO4JMvCj60NgMt-22">
          <mxGeometry x="1" relative="1" as="geometry">
            <mxPoint x="60" y="400" as="targetPoint" />
            <Array as="points">
              <mxPoint x="90" y="375" />
            </Array>
          </mxGeometry>
        </mxCell>
        <mxCell id="xQWbSTvO4JMvCj60NgMt-44" value="Alumno" style="swimlane;fontStyle=0;childLayout=stackLayout;horizontal=1;startSize=26;fillColor=none;horizontalStack=0;resizeParent=1;resizeParentMax=0;resizeLast=0;collapsible=1;marginBottom=0;" vertex="1" parent="WIyWlLk6GJQsqaUBKTNV-1">
          <mxGeometry x="132" y="160" width="140" height="104" as="geometry" />
        </mxCell>
        <mxCell id="xQWbSTvO4JMvCj60NgMt-45" value="Dni: String" style="text;strokeColor=none;fillColor=none;align=left;verticalAlign=top;spacingLeft=4;spacingRight=4;overflow=hidden;rotatable=0;points=[[0,0.5],[1,0.5]];portConstraint=eastwest;" vertex="1" parent="xQWbSTvO4JMvCj60NgMt-44">
          <mxGeometry y="26" width="140" height="26" as="geometry" />
        </mxCell>
        <mxCell id="xQWbSTvO4JMvCj60NgMt-46" value="Nombre: String" style="text;strokeColor=none;fillColor=none;align=left;verticalAlign=top;spacingLeft=4;spacingRight=4;overflow=hidden;rotatable=0;points=[[0,0.5],[1,0.5]];portConstraint=eastwest;" vertex="1" parent="xQWbSTvO4JMvCj60NgMt-44">
          <mxGeometry y="52" width="140" height="26" as="geometry" />
        </mxCell>
        <mxCell id="xQWbSTvO4JMvCj60NgMt-47" value="+ field: type" style="text;strokeColor=none;fillColor=none;align=left;verticalAlign=top;spacingLeft=4;spacingRight=4;overflow=hidden;rotatable=0;points=[[0,0.5],[1,0.5]];portConstraint=eastwest;" vertex="1" parent="xQWbSTvO4JMvCj60NgMt-44">
          <mxGeometry y="78" width="140" height="26" as="geometry" />
        </mxCell>
      </root>
    </mxGraphModel>
  </diagram>
</mxfile>
